<mxfile host="app.diagrams.net" agent="Mozilla/5.0 (Windows NT 10.0; Win64; x64) AppleWebKit/537.36 (KHTML, like Gecko) Chrome/136.0.0.0 Safari/537.36" version="27.0.5">
  <diagram name="Σελίδα-1" id="FPNwcSdIoczKbJv5BvVL">
    <mxGraphModel dx="1586" dy="1102" grid="1" gridSize="10" guides="1" tooltips="1" connect="1" arrows="1" fold="1" page="1" pageScale="1" pageWidth="827" pageHeight="1169" math="0" shadow="0" adaptiveColors="none">
      <root>
        <mxCell id="0" />
        <mxCell id="1" parent="0" />
        <mxCell id="dIIYGKijc51no_FASXHO-1" value="" style="shape=umlLifeline;perimeter=lifelinePerimeter;whiteSpace=wrap;html=1;container=1;dropTarget=0;collapsible=0;recursiveResize=0;outlineConnect=0;portConstraint=eastwest;newEdgeStyle={&quot;curved&quot;:0,&quot;rounded&quot;:0};participant=umlActor;" parent="1" vertex="1">
          <mxGeometry x="110" y="120" width="20" height="760" as="geometry" />
        </mxCell>
        <mxCell id="dIIYGKijc51no_FASXHO-3" value="" style="html=1;points=[[0,0,0,0,5],[0,1,0,0,-5],[1,0,0,0,5],[1,1,0,0,-5]];perimeter=orthogonalPerimeter;outlineConnect=0;targetShapes=umlLifeline;portConstraint=eastwest;newEdgeStyle={&quot;curved&quot;:0,&quot;rounded&quot;:0};" parent="dIIYGKijc51no_FASXHO-1" vertex="1">
          <mxGeometry x="5" y="40" width="10" height="640" as="geometry" />
        </mxCell>
        <mxCell id="dIIYGKijc51no_FASXHO-34" value="24 hours ban" style="html=1;verticalAlign=bottom;endArrow=open;dashed=1;endSize=8;curved=0;rounded=0;" parent="dIIYGKijc51no_FASXHO-1" source="dIIYGKijc51no_FASXHO-3" target="dIIYGKijc51no_FASXHO-3" edge="1">
          <mxGeometry x="0.1" y="-40" relative="1" as="geometry">
            <mxPoint y="300" as="sourcePoint" />
            <mxPoint x="-80" y="300" as="targetPoint" />
            <Array as="points">
              <mxPoint x="-40" y="300" />
              <mxPoint x="-40" y="310" />
            </Array>
            <mxPoint x="-40" y="-40" as="offset" />
          </mxGeometry>
        </mxCell>
        <mxCell id="dIIYGKijc51no_FASXHO-2" value=":Question" style="shape=umlLifeline;perimeter=lifelinePerimeter;whiteSpace=wrap;html=1;container=1;dropTarget=0;collapsible=0;recursiveResize=0;outlineConnect=0;portConstraint=eastwest;newEdgeStyle={&quot;curved&quot;:0,&quot;rounded&quot;:0};" parent="1" vertex="1">
          <mxGeometry x="240" y="120" width="100" height="760" as="geometry" />
        </mxCell>
        <mxCell id="dIIYGKijc51no_FASXHO-5" value="[User want to be hidden]" style="text;html=1;align=center;verticalAlign=middle;resizable=0;points=[];autosize=1;strokeColor=none;fillColor=none;" parent="1" vertex="1">
          <mxGeometry x="-60" y="230" width="150" height="30" as="geometry" />
        </mxCell>
        <mxCell id="dIIYGKijc51no_FASXHO-6" value="" style="html=1;points=[[0,0,0,0,5],[0,1,0,0,-5],[1,0,0,0,5],[1,1,0,0,-5]];perimeter=orthogonalPerimeter;outlineConnect=0;targetShapes=umlLifeline;portConstraint=eastwest;newEdgeStyle={&quot;curved&quot;:0,&quot;rounded&quot;:0};" parent="1" vertex="1">
          <mxGeometry x="285" y="160" width="10" height="150" as="geometry" />
        </mxCell>
        <mxCell id="dIIYGKijc51no_FASXHO-7" value="write question" style="html=1;verticalAlign=bottom;endArrow=block;curved=0;rounded=0;entryX=-0.2;entryY=0.54;entryDx=0;entryDy=0;entryPerimeter=0;" parent="1" edge="1">
          <mxGeometry width="80" relative="1" as="geometry">
            <mxPoint x="127" y="210.00000000000009" as="sourcePoint" />
            <mxPoint x="285" y="210.00000000000009" as="targetPoint" />
          </mxGeometry>
        </mxCell>
        <mxCell id="dIIYGKijc51no_FASXHO-9" value="display question form" style="html=1;verticalAlign=bottom;endArrow=open;dashed=1;endSize=8;curved=0;rounded=0;entryX=0.9;entryY=0.035;entryDx=0;entryDy=0;entryPerimeter=0;" parent="1" edge="1">
          <mxGeometry relative="1" as="geometry">
            <mxPoint x="285" y="180.00000000000006" as="sourcePoint" />
            <mxPoint x="124" y="180.00000000000006" as="targetPoint" />
          </mxGeometry>
        </mxCell>
        <mxCell id="dIIYGKijc51no_FASXHO-10" value="choose no name question" style="html=1;verticalAlign=bottom;endArrow=block;curved=0;rounded=0;exitX=1.2;exitY=0.097;exitDx=0;exitDy=0;exitPerimeter=0;" parent="1" edge="1">
          <mxGeometry width="80" relative="1" as="geometry">
            <mxPoint x="127" y="239.49999999999991" as="sourcePoint" />
            <mxPoint x="285" y="239.49999999999991" as="targetPoint" />
          </mxGeometry>
        </mxCell>
        <mxCell id="dIIYGKijc51no_FASXHO-11" value="alt" style="shape=umlFrame;whiteSpace=wrap;html=1;pointerEvents=0;" parent="1" vertex="1">
          <mxGeometry x="-120" y="220" width="430" height="40" as="geometry" />
        </mxCell>
        <mxCell id="dIIYGKijc51no_FASXHO-13" value="display filled question form" style="html=1;verticalAlign=bottom;endArrow=open;dashed=1;endSize=8;curved=0;rounded=0;" parent="1" edge="1">
          <mxGeometry relative="1" as="geometry">
            <mxPoint x="285" y="280" as="sourcePoint" />
            <mxPoint x="124" y="280" as="targetPoint" />
          </mxGeometry>
        </mxCell>
        <mxCell id="dIIYGKijc51no_FASXHO-14" value="loop" style="shape=umlFrame;whiteSpace=wrap;html=1;pointerEvents=0;" parent="1" vertex="1">
          <mxGeometry x="-260" y="190" width="820" height="510" as="geometry" />
        </mxCell>
        <mxCell id="dIIYGKijc51no_FASXHO-15" value="[If user type question]" style="text;html=1;align=center;verticalAlign=middle;resizable=0;points=[];autosize=1;strokeColor=none;fillColor=none;" parent="1" vertex="1">
          <mxGeometry x="-265" y="220" width="140" height="30" as="geometry" />
        </mxCell>
        <mxCell id="dIIYGKijc51no_FASXHO-19" value=":ViewSubject" style="shape=umlLifeline;perimeter=lifelinePerimeter;whiteSpace=wrap;html=1;container=1;dropTarget=0;collapsible=0;recursiveResize=0;outlineConnect=0;portConstraint=eastwest;newEdgeStyle={&quot;curved&quot;:0,&quot;rounded&quot;:0};" parent="1" vertex="1">
          <mxGeometry x="364" y="120" width="100" height="760" as="geometry" />
        </mxCell>
        <mxCell id="dIIYGKijc51no_FASXHO-20" value="" style="html=1;points=[[0,0,0,0,5],[0,1,0,0,-5],[1,0,0,0,5],[1,1,0,0,-5]];perimeter=orthogonalPerimeter;outlineConnect=0;targetShapes=umlLifeline;portConstraint=eastwest;newEdgeStyle={&quot;curved&quot;:0,&quot;rounded&quot;:0};" parent="dIIYGKijc51no_FASXHO-19" vertex="1">
          <mxGeometry x="45" y="190" width="10" height="20" as="geometry" />
        </mxCell>
        <mxCell id="dIIYGKijc51no_FASXHO-37" value="" style="html=1;points=[[0,0,0,0,5],[0,1,0,0,-5],[1,0,0,0,5],[1,1,0,0,-5]];perimeter=orthogonalPerimeter;outlineConnect=0;targetShapes=umlLifeline;portConstraint=eastwest;newEdgeStyle={&quot;curved&quot;:0,&quot;rounded&quot;:0};" parent="dIIYGKijc51no_FASXHO-19" vertex="1">
          <mxGeometry x="45" y="320" width="10" height="30" as="geometry" />
        </mxCell>
        <mxCell id="dIIYGKijc51no_FASXHO-21" value="redirect()" style="html=1;verticalAlign=bottom;endArrow=block;curved=0;rounded=0;" parent="1" edge="1">
          <mxGeometry width="80" relative="1" as="geometry">
            <mxPoint x="295" y="310" as="sourcePoint" />
            <mxPoint x="410" y="310" as="targetPoint" />
          </mxGeometry>
        </mxCell>
        <mxCell id="dIIYGKijc51no_FASXHO-24" value="display()" style="html=1;verticalAlign=bottom;endArrow=open;dashed=1;endSize=8;curved=0;rounded=0;exitX=0;exitY=1;exitDx=0;exitDy=-5;exitPerimeter=0;" parent="1" source="dIIYGKijc51no_FASXHO-20" target="dIIYGKijc51no_FASXHO-3" edge="1">
          <mxGeometry relative="1" as="geometry">
            <mxPoint x="220" y="320" as="sourcePoint" />
            <mxPoint x="140" y="320" as="targetPoint" />
          </mxGeometry>
        </mxCell>
        <mxCell id="dIIYGKijc51no_FASXHO-26" value="alt" style="shape=umlFrame;whiteSpace=wrap;html=1;pointerEvents=0;" parent="1" vertex="1">
          <mxGeometry x="-120" y="340" width="570" height="130" as="geometry" />
        </mxCell>
        <mxCell id="dIIYGKijc51no_FASXHO-27" value="[User use bad phrase]" style="text;html=1;align=center;verticalAlign=middle;resizable=0;points=[];autosize=1;strokeColor=none;fillColor=none;" parent="1" vertex="1">
          <mxGeometry x="-60" y="370" width="140" height="30" as="geometry" />
        </mxCell>
        <mxCell id="dIIYGKijc51no_FASXHO-28" value="" style="html=1;points=[[0,0,0,0,5],[0,1,0,0,-5],[1,0,0,0,5],[1,1,0,0,-5]];perimeter=orthogonalPerimeter;outlineConnect=0;targetShapes=umlLifeline;portConstraint=eastwest;newEdgeStyle={&quot;curved&quot;:0,&quot;rounded&quot;:0};" parent="1" vertex="1">
          <mxGeometry x="285" y="360" width="10" height="60" as="geometry" />
        </mxCell>
        <mxCell id="dIIYGKijc51no_FASXHO-29" value="write question" style="html=1;verticalAlign=bottom;endArrow=block;curved=0;rounded=0;entryX=-0.2;entryY=0.54;entryDx=0;entryDy=0;entryPerimeter=0;" parent="1" edge="1">
          <mxGeometry width="80" relative="1" as="geometry">
            <mxPoint x="127" y="360.0000000000001" as="sourcePoint" />
            <mxPoint x="285" y="360.0000000000001" as="targetPoint" />
          </mxGeometry>
        </mxCell>
        <mxCell id="dIIYGKijc51no_FASXHO-30" value="display filled question form" style="html=1;verticalAlign=bottom;endArrow=open;dashed=1;endSize=8;curved=0;rounded=0;entryX=0.9;entryY=0.167;entryDx=0;entryDy=0;entryPerimeter=0;" parent="1" edge="1">
          <mxGeometry relative="1" as="geometry">
            <mxPoint x="285" y="377" as="sourcePoint" />
            <mxPoint x="124" y="377" as="targetPoint" />
          </mxGeometry>
        </mxCell>
        <mxCell id="dIIYGKijc51no_FASXHO-31" value="click(&quot;Υποβολή&quot;)" style="html=1;verticalAlign=bottom;endArrow=block;curved=0;rounded=0;" parent="1" edge="1">
          <mxGeometry width="80" relative="1" as="geometry">
            <mxPoint x="126" y="300" as="sourcePoint" />
            <mxPoint x="285" y="300" as="targetPoint" />
          </mxGeometry>
        </mxCell>
        <mxCell id="dIIYGKijc51no_FASXHO-32" value="click(&quot;Υποβολή&quot;)" style="html=1;verticalAlign=bottom;endArrow=block;curved=0;rounded=0;" parent="1" edge="1">
          <mxGeometry width="80" relative="1" as="geometry">
            <mxPoint x="126" y="394" as="sourcePoint" />
            <mxPoint x="285" y="394" as="targetPoint" />
          </mxGeometry>
        </mxCell>
        <mxCell id="dIIYGKijc51no_FASXHO-33" value="display message" style="html=1;verticalAlign=bottom;endArrow=open;dashed=1;endSize=8;curved=0;rounded=0;exitX=0;exitY=1;exitDx=0;exitDy=-5;exitPerimeter=0;" parent="1" source="dIIYGKijc51no_FASXHO-28" target="dIIYGKijc51no_FASXHO-3" edge="1">
          <mxGeometry relative="1" as="geometry">
            <mxPoint x="210" y="420" as="sourcePoint" />
            <mxPoint x="130" y="420" as="targetPoint" />
          </mxGeometry>
        </mxCell>
        <mxCell id="dIIYGKijc51no_FASXHO-16" value="" style="endArrow=none;dashed=1;html=1;rounded=0;exitX=0.013;exitY=0.033;exitDx=0;exitDy=0;exitPerimeter=0;entryX=1.001;entryY=0.645;entryDx=0;entryDy=0;entryPerimeter=0;" parent="1" source="dIIYGKijc51no_FASXHO-17" edge="1">
          <mxGeometry width="50" height="50" relative="1" as="geometry">
            <mxPoint x="-220" y="510" as="sourcePoint" />
            <mxPoint x="430.69000000000005" y="481.9000000000001" as="targetPoint" />
          </mxGeometry>
        </mxCell>
        <mxCell id="dIIYGKijc51no_FASXHO-17" value="[If user dont type question]" style="text;html=1;align=center;verticalAlign=middle;resizable=0;points=[];autosize=1;strokeColor=none;fillColor=none;" parent="1" vertex="1">
          <mxGeometry x="-260" y="480" width="160" height="30" as="geometry" />
        </mxCell>
        <mxCell id="dIIYGKijc51no_FASXHO-25" value="display(&quot;Η ερώτηση δεν&lt;div&gt;μπορεί να είναι κενή&quot;)&lt;/div&gt;" style="html=1;verticalAlign=bottom;endArrow=open;dashed=1;endSize=8;curved=0;rounded=0;exitX=0.5;exitY=1;exitDx=0;exitDy=0;exitPerimeter=0;" parent="1" source="dIIYGKijc51no_FASXHO-18" edge="1">
          <mxGeometry relative="1" as="geometry">
            <mxPoint x="230" y="530" as="sourcePoint" />
            <mxPoint x="125" y="540" as="targetPoint" />
          </mxGeometry>
        </mxCell>
        <mxCell id="dIIYGKijc51no_FASXHO-12" value="click(&quot;Υποβολή&quot;)" style="html=1;verticalAlign=bottom;endArrow=block;curved=0;rounded=0;" parent="1" edge="1">
          <mxGeometry width="80" relative="1" as="geometry">
            <mxPoint x="126" y="504.5" as="sourcePoint" />
            <mxPoint x="285" y="504.5" as="targetPoint" />
          </mxGeometry>
        </mxCell>
        <mxCell id="dIIYGKijc51no_FASXHO-18" value="" style="html=1;points=[[0,0,0,0,5],[0,1,0,0,-5],[1,0,0,0,5],[1,1,0,0,-5]];perimeter=orthogonalPerimeter;outlineConnect=0;targetShapes=umlLifeline;portConstraint=eastwest;newEdgeStyle={&quot;curved&quot;:0,&quot;rounded&quot;:0};" parent="1" vertex="1">
          <mxGeometry x="285" y="490" width="10" height="50" as="geometry" />
        </mxCell>
        <mxCell id="dIIYGKijc51no_FASXHO-36" value="redirect()" style="html=1;verticalAlign=bottom;endArrow=block;curved=0;rounded=0;entryX=0;entryY=0;entryDx=0;entryDy=5;entryPerimeter=0;" parent="1" source="dIIYGKijc51no_FASXHO-3" target="dIIYGKijc51no_FASXHO-37" edge="1">
          <mxGeometry x="-0.3404" width="80" relative="1" as="geometry">
            <mxPoint x="130" y="430" as="sourcePoint" />
            <mxPoint x="410" y="430" as="targetPoint" />
            <mxPoint as="offset" />
          </mxGeometry>
        </mxCell>
        <mxCell id="dIIYGKijc51no_FASXHO-38" value="display()" style="html=1;verticalAlign=bottom;endArrow=open;dashed=1;endSize=8;curved=0;rounded=0;exitX=0;exitY=1;exitDx=0;exitDy=-5;exitPerimeter=0;" parent="1" source="dIIYGKijc51no_FASXHO-37" target="dIIYGKijc51no_FASXHO-3" edge="1">
          <mxGeometry relative="1" as="geometry">
            <mxPoint x="240" y="440" as="sourcePoint" />
            <mxPoint x="160" y="440" as="targetPoint" />
          </mxGeometry>
        </mxCell>
        <mxCell id="eE-SgqUQoxmuOKJf86Kn-1" value="alt" style="shape=umlFrame;whiteSpace=wrap;html=1;pointerEvents=0;" parent="1" vertex="1">
          <mxGeometry x="-110" y="710" width="670" height="90" as="geometry" />
        </mxCell>
        <mxCell id="eE-SgqUQoxmuOKJf86Kn-2" value="[User cancel question]" style="text;html=1;align=center;verticalAlign=middle;resizable=0;points=[];autosize=1;strokeColor=none;fillColor=none;" parent="1" vertex="1">
          <mxGeometry x="-110" y="740" width="140" height="30" as="geometry" />
        </mxCell>
        <mxCell id="eE-SgqUQoxmuOKJf86Kn-3" value="" style="html=1;points=[[0,0,0,0,5],[0,1,0,0,-5],[1,0,0,0,5],[1,1,0,0,-5]];perimeter=orthogonalPerimeter;outlineConnect=0;targetShapes=umlLifeline;portConstraint=eastwest;newEdgeStyle={&quot;curved&quot;:0,&quot;rounded&quot;:0};" parent="1" vertex="1">
          <mxGeometry x="409" y="750" width="10" height="30" as="geometry" />
        </mxCell>
        <mxCell id="eE-SgqUQoxmuOKJf86Kn-4" value="" style="html=1;points=[[0,0,0,0,5],[0,1,0,0,-5],[1,0,0,0,5],[1,1,0,0,-5]];perimeter=orthogonalPerimeter;outlineConnect=0;targetShapes=umlLifeline;portConstraint=eastwest;newEdgeStyle={&quot;curved&quot;:0,&quot;rounded&quot;:0};" parent="1" vertex="1">
          <mxGeometry x="285" y="730" width="10" height="30" as="geometry" />
        </mxCell>
        <mxCell id="eE-SgqUQoxmuOKJf86Kn-5" value="click(ακύρωση)" style="html=1;verticalAlign=bottom;endArrow=block;curved=0;rounded=0;" parent="1" edge="1">
          <mxGeometry width="80" relative="1" as="geometry">
            <mxPoint x="126" y="734" as="sourcePoint" />
            <mxPoint x="285" y="734" as="targetPoint" />
          </mxGeometry>
        </mxCell>
        <mxCell id="eE-SgqUQoxmuOKJf86Kn-6" value="redirect()" style="html=1;verticalAlign=bottom;endArrow=block;curved=0;rounded=0;exitX=1;exitY=1;exitDx=0;exitDy=-5;exitPerimeter=0;" parent="1" source="eE-SgqUQoxmuOKJf86Kn-4" target="eE-SgqUQoxmuOKJf86Kn-3" edge="1">
          <mxGeometry x="-0.0351" width="80" relative="1" as="geometry">
            <mxPoint x="135" y="775" as="sourcePoint" />
            <mxPoint x="220" y="780" as="targetPoint" />
            <mxPoint as="offset" />
          </mxGeometry>
        </mxCell>
        <mxCell id="eE-SgqUQoxmuOKJf86Kn-7" value="display()" style="html=1;verticalAlign=bottom;endArrow=open;dashed=1;endSize=8;curved=0;rounded=0;exitX=0;exitY=1;exitDx=0;exitDy=-5;exitPerimeter=0;" parent="1" source="eE-SgqUQoxmuOKJf86Kn-3" edge="1">
          <mxGeometry x="0.331" relative="1" as="geometry">
            <mxPoint x="250" y="780" as="sourcePoint" />
            <mxPoint x="125" y="775" as="targetPoint" />
            <mxPoint as="offset" />
          </mxGeometry>
        </mxCell>
        <mxCell id="J5DDkj3ert5rcxU6aKGB-1" value="" style="endArrow=none;dashed=1;html=1;rounded=0;entryX=1;entryY=0.727;entryDx=0;entryDy=0;entryPerimeter=0;" edge="1" parent="1" target="dIIYGKijc51no_FASXHO-14">
          <mxGeometry width="50" height="50" relative="1" as="geometry">
            <mxPoint x="-260" y="560" as="sourcePoint" />
            <mxPoint x="459.28" y="560.76" as="targetPoint" />
          </mxGeometry>
        </mxCell>
        <mxCell id="J5DDkj3ert5rcxU6aKGB-2" value="[If user is banned]" style="text;html=1;align=center;verticalAlign=middle;resizable=0;points=[];autosize=1;strokeColor=none;fillColor=none;" vertex="1" parent="1">
          <mxGeometry x="-260" y="560" width="120" height="30" as="geometry" />
        </mxCell>
        <mxCell id="J5DDkj3ert5rcxU6aKGB-3" value="write question" style="html=1;verticalAlign=bottom;endArrow=block;curved=0;rounded=0;entryX=-0.2;entryY=0.54;entryDx=0;entryDy=0;entryPerimeter=0;" edge="1" parent="1">
          <mxGeometry width="80" relative="1" as="geometry">
            <mxPoint x="127" y="590.0000000000001" as="sourcePoint" />
            <mxPoint x="285" y="590.0000000000001" as="targetPoint" />
          </mxGeometry>
        </mxCell>
        <mxCell id="J5DDkj3ert5rcxU6aKGB-4" value="display filled question form" style="html=1;verticalAlign=bottom;endArrow=open;dashed=1;endSize=8;curved=0;rounded=0;entryX=0.9;entryY=0.167;entryDx=0;entryDy=0;entryPerimeter=0;" edge="1" parent="1">
          <mxGeometry relative="1" as="geometry">
            <mxPoint x="285" y="607" as="sourcePoint" />
            <mxPoint x="124" y="607" as="targetPoint" />
          </mxGeometry>
        </mxCell>
        <mxCell id="J5DDkj3ert5rcxU6aKGB-5" value="click(&quot;Υποβολή&quot;)" style="html=1;verticalAlign=bottom;endArrow=block;curved=0;rounded=0;" edge="1" parent="1">
          <mxGeometry width="80" relative="1" as="geometry">
            <mxPoint x="126" y="624" as="sourcePoint" />
            <mxPoint x="285" y="624" as="targetPoint" />
          </mxGeometry>
        </mxCell>
        <mxCell id="J5DDkj3ert5rcxU6aKGB-6" value="display message" style="html=1;verticalAlign=bottom;endArrow=open;dashed=1;endSize=8;curved=0;rounded=0;exitX=0;exitY=1;exitDx=0;exitDy=-5;exitPerimeter=0;" edge="1" parent="1">
          <mxGeometry relative="1" as="geometry">
            <mxPoint x="285" y="645" as="sourcePoint" />
            <mxPoint x="125" y="645" as="targetPoint" />
          </mxGeometry>
        </mxCell>
        <mxCell id="J5DDkj3ert5rcxU6aKGB-7" value="" style="html=1;points=[[0,0,0,0,5],[0,1,0,0,-5],[1,0,0,0,5],[1,1,0,0,-5]];perimeter=orthogonalPerimeter;outlineConnect=0;targetShapes=umlLifeline;portConstraint=eastwest;newEdgeStyle={&quot;curved&quot;:0,&quot;rounded&quot;:0};" vertex="1" parent="1">
          <mxGeometry x="285" y="570" width="10" height="80" as="geometry" />
        </mxCell>
        <mxCell id="J5DDkj3ert5rcxU6aKGB-8" value=":BanTimer" style="shape=umlLifeline;perimeter=lifelinePerimeter;whiteSpace=wrap;html=1;container=1;dropTarget=0;collapsible=0;recursiveResize=0;outlineConnect=0;portConstraint=eastwest;newEdgeStyle={&quot;curved&quot;:0,&quot;rounded&quot;:0};" vertex="1" parent="1">
          <mxGeometry x="490" y="120" width="100" height="760" as="geometry" />
        </mxCell>
        <mxCell id="J5DDkj3ert5rcxU6aKGB-9" value="" style="html=1;points=[[0,0,0,0,5],[0,1,0,0,-5],[1,0,0,0,5],[1,1,0,0,-5]];perimeter=orthogonalPerimeter;outlineConnect=0;targetShapes=umlLifeline;portConstraint=eastwest;newEdgeStyle={&quot;curved&quot;:0,&quot;rounded&quot;:0};" vertex="1" parent="J5DDkj3ert5rcxU6aKGB-8">
          <mxGeometry x="45" y="520" width="10" height="30" as="geometry" />
        </mxCell>
        <mxCell id="J5DDkj3ert5rcxU6aKGB-10" value="check ban time" style="html=1;verticalAlign=bottom;endArrow=block;curved=0;rounded=0;" edge="1" parent="1" target="J5DDkj3ert5rcxU6aKGB-9">
          <mxGeometry width="80" relative="1" as="geometry">
            <mxPoint x="295" y="650" as="sourcePoint" />
            <mxPoint x="375" y="650" as="targetPoint" />
          </mxGeometry>
        </mxCell>
        <mxCell id="J5DDkj3ert5rcxU6aKGB-11" value="display ban time left" style="html=1;verticalAlign=bottom;endArrow=open;dashed=1;endSize=8;curved=0;rounded=0;exitX=0;exitY=1;exitDx=0;exitDy=-5;exitPerimeter=0;" edge="1" parent="1" target="dIIYGKijc51no_FASXHO-3">
          <mxGeometry relative="1" as="geometry">
            <mxPoint x="540" y="670" as="sourcePoint" />
            <mxPoint x="130" y="670" as="targetPoint" />
          </mxGeometry>
        </mxCell>
      </root>
    </mxGraphModel>
  </diagram>
</mxfile>
